<svg xmlns="http://www.w3.org/2000/svg" width="48" height="48" viewBox="0 0 1024 1022">
<g transform="translate(0,1022) scale(0.1,-0.1)"
fill="#4ade80" stroke="none">
<path d="M4765 10140 c-77 -4 -171 -13 -210 -19 -38 -6 -92 -11 -118 -11 -65
0 -390 -62 -512 -97 -27 -8 -75 -21 -105 -28 -152 -37 -311 -84 -325 -96 -5
-5 -17 -9 -27 -9 -9 0 -37 -9 -60 -19 -24 -10 -70 -29 -103 -41 -61 -22 -128
-51 -178 -76 -16 -8 -34 -14 -40 -14 -21 0 -473 -232 -502 -258 -6 -5 -15 -11
-20 -13 -29 -12 -253 -154 -282 -179 -7 -5 -17 -10 -22 -10 -6 0 -14 -6 -18
-13 -4 -6 -33 -28 -63 -48 -30 -20 -102 -74 -160 -120 -114 -91 -111 -88 -185
-155 -27 -25 -70 -62 -95 -82 -45 -37 -309 -299 -365 -362 -16 -19 -54 -64
-84 -100 -29 -36 -56 -67 -60 -70 -17 -13 -131 -160 -131 -169 0 -5 -6 -14
-13 -18 -12 -7 -73 -88 -102 -135 -5 -9 -25 -37 -42 -62 -18 -26 -33 -49 -33
-52 0 -5 -52 -87 -61 -94 -3 -3 -8 -12 -12 -20 -4 -8 -18 -33 -32 -55 -14 -22
-32 -55 -41 -74 -8 -18 -27 -52 -42 -75 -14 -22 -49 -86 -77 -141 -29 -55 -57
-109 -62 -120 -20 -36 -152 -354 -183 -440 -12 -33 -26 -71 -32 -85 -34 -84
-99 -309 -133 -460 -7 -30 -20 -84 -28 -120 -29 -117 -50 -224 -57 -285 -4
-33 -15 -112 -23 -175 -24 -167 -47 -494 -47 -648 0 -114 7 -229 34 -548 2
-29 11 -92 20 -140 8 -49 19 -118 25 -154 27 -180 155 -679 202 -785 5 -11 24
-58 43 -105 18 -47 46 -114 61 -150 15 -36 36 -87 47 -115 11 -27 28 -68 38
-90 59 -133 66 -185 36 -299 -13 -50 -28 -102 -34 -116 -16 -40 -62 -188 -62
-201 0 -6 -6 -25 -14 -42 -19 -46 -96 -282 -96 -298 -1 -8 -9 -32 -20 -54 -11
-22 -19 -49 -20 -61 0 -11 -4 -24 -9 -30 -5 -5 -19 -43 -31 -84 -11 -41 -27
-95 -35 -120 -7 -25 -22 -74 -33 -110 -22 -72 -36 -112 -64 -182 -10 -26 -18
-55 -18 -66 0 -11 -7 -37 -16 -57 -58 -139 -57 -449 2 -583 110 -252 223 -388
399 -482 33 -17 64 -36 70 -41 5 -5 16 -9 25 -9 8 0 28 -7 44 -15 16 -9 46
-20 65 -24 20 -5 63 -16 96 -25 40 -11 101 -16 186 -16 108 0 142 4 240 30 63
16 134 35 159 41 76 20 183 50 225 64 22 7 76 23 120 35 44 12 103 30 130 40
28 10 88 28 135 40 47 12 108 30 135 40 28 9 73 23 100 30 28 7 73 19 100 27
28 8 79 23 115 33 36 10 79 22 95 28 75 26 165 51 227 62 78 14 182 1 245 -31
20 -10 44 -19 53 -19 9 0 25 -7 37 -15 11 -8 56 -26 99 -40 44 -14 93 -32 111
-40 17 -8 35 -15 40 -15 6 0 24 -7 41 -15 17 -9 52 -22 79 -29 26 -8 107 -32
178 -55 120 -38 204 -59 435 -111 152 -33 251 -51 334 -60 44 -5 140 -16 211
-24 180 -21 741 -21 920 0 72 8 173 19 225 24 53 5 109 14 125 20 16 6 63 15
104 20 42 6 99 16 126 24 28 8 95 24 150 36 55 13 117 29 138 36 20 8 46 14
56 14 10 0 40 9 67 19 27 11 94 33 149 51 55 17 104 36 110 41 5 5 19 9 32 9
13 0 31 4 41 10 27 16 134 60 144 60 15 0 277 127 503 244 53 27 108 60 141
83 11 9 47 30 79 47 38 21 213 135 231 151 6 6 22 17 34 25 36 24 94 68 111
85 9 8 21 15 27 15 5 0 12 4 14 8 2 4 30 28 63 54 57 43 72 56 155 132 19 17
55 48 80 68 50 40 179 167 310 304 105 111 126 135 265 309 119 150 167 215
248 339 6 10 21 31 33 45 19 24 99 156 138 226 9 17 28 48 41 70 14 22 37 65
52 95 16 30 30 57 33 60 11 10 140 288 140 301 0 6 6 23 14 37 8 15 27 59 41
97 32 86 47 125 74 192 12 28 21 58 21 66 0 8 9 36 19 63 10 27 27 78 36 114
10 36 26 92 36 125 10 33 27 103 38 155 11 52 28 129 37 170 9 41 20 102 24
135 4 33 14 105 23 160 57 355 57 1015 0 1345 -8 47 -19 119 -24 160 -5 41
-14 86 -19 100 -5 14 -13 52 -18 85 -5 33 -17 92 -27 130 -9 39 -26 106 -37
150 -45 176 -108 372 -149 463 -10 23 -19 48 -19 55 -1 6 -9 30 -20 52 -11 22
-20 47 -20 55 0 8 -7 24 -15 34 -8 11 -15 26 -15 33 0 8 -29 75 -65 148 -36
74 -65 139 -65 144 0 5 -3 11 -7 13 -5 2 -20 28 -36 58 -31 64 -29 60 -143
250 -81 135 -148 242 -167 265 -10 12 -92 128 -143 203 -21 30 -43 56 -51 59
-7 3 -13 11 -13 19 0 7 -6 17 -12 21 -7 4 -42 44 -78 88 -104 128 -303 333
-478 494 -106 96 -351 294 -432 348 -30 20 -57 39 -60 42 -3 3 -12 11 -21 16
-9 6 -36 23 -60 40 -56 38 -69 46 -110 69 -19 10 -36 22 -39 25 -5 6 -27 19
-80 48 -14 8 -45 27 -70 43 -25 16 -88 51 -140 78 -52 26 -104 53 -115 60 -22
12 -184 87 -230 106 -16 7 -51 23 -76 35 -25 11 -52 21 -60 21 -8 0 -22 7 -31
14 -10 7 -57 25 -105 41 -49 15 -97 31 -108 36 -30 13 -160 54 -245 77 -318
86 -550 130 -816 157 -188 19 -719 27 -929 15z m922 -240 c256 -35 497 -79
628 -115 204 -57 305 -88 377 -116 26 -11 53 -19 60 -19 8 0 33 -9 56 -20 22
-11 45 -20 51 -20 17 0 259 -109 395 -177 139 -70 156 -79 231 -124 28 -16 62
-34 78 -40 15 -6 27 -15 27 -20 0 -5 5 -9 10 -9 6 0 37 -17 68 -38 133 -89
290 -199 337 -234 28 -21 61 -46 73 -55 13 -10 31 -25 40 -33 10 -9 55 -47
102 -85 127 -105 321 -291 429 -412 219 -243 276 -314 398 -493 21 -30 41 -56
45 -58 5 -2 8 -7 8 -12 0 -4 26 -48 58 -96 33 -49 72 -111 88 -137 16 -27 39
-65 51 -85 46 -76 263 -523 263 -542 0 -5 9 -24 20 -42 11 -18 20 -39 20 -46
0 -8 6 -28 14 -45 8 -18 24 -63 36 -102 13 -38 31 -89 41 -113 11 -23 19 -51
19 -61 0 -10 7 -35 15 -56 9 -20 20 -55 25 -78 5 -23 21 -85 35 -137 60 -217
106 -512 131 -828 25 -313 11 -709 -33 -997 -9 -55 -19 -125 -24 -155 -4 -30
-17 -95 -28 -145 -11 -49 -27 -124 -36 -165 -19 -91 -37 -154 -82 -285 -19
-55 -38 -113 -43 -130 -12 -41 -84 -241 -105 -290 -14 -34 -116 -248 -159
-335 -14 -27 -34 -67 -48 -90 -4 -8 -14 -26 -21 -40 -7 -14 -36 -65 -65 -113
-28 -48 -52 -92 -52 -97 0 -6 -4 -10 -8 -10 -5 0 -19 -19 -33 -41 -13 -23 -31
-51 -39 -64 -8 -12 -42 -62 -74 -111 -32 -49 -63 -90 -67 -92 -5 -2 -9 -10 -9
-17 0 -8 -6 -18 -13 -22 -7 -4 -39 -42 -69 -84 -31 -42 -67 -87 -81 -100 -13
-13 -46 -51 -73 -84 -112 -137 -307 -332 -479 -480 -44 -38 -87 -76 -95 -84
-8 -8 -51 -41 -95 -74 -44 -32 -81 -63 -83 -68 -2 -5 -8 -9 -14 -9 -11 0 -91
-60 -96 -72 -2 -5 -10 -8 -17 -8 -8 0 -18 -6 -22 -12 -10 -16 -69 -58 -81 -58
-5 0 -16 -7 -23 -16 -7 -9 -22 -20 -34 -25 -11 -5 -40 -23 -65 -39 -25 -16
-58 -36 -75 -44 -16 -8 -57 -30 -90 -49 -190 -108 -308 -169 -390 -202 -38
-16 -74 -32 -80 -37 -5 -4 -15 -8 -23 -8 -14 0 -57 -18 -145 -61 -22 -11 -43
-19 -48 -19 -5 0 -48 -15 -97 -33 -110 -42 -189 -67 -422 -131 -133 -36 -374
-81 -595 -111 -359 -49 -963 -37 -1295 26 -30 6 -91 17 -135 24 -128 22 -365
80 -398 97 -10 5 -39 13 -65 18 -44 8 -159 43 -192 59 -8 4 -49 18 -90 31 -41
12 -100 34 -130 47 -30 14 -68 31 -85 38 -16 7 -48 21 -70 30 -122 53 -195 67
-350 67 -127 0 -160 -3 -214 -21 -35 -11 -71 -21 -80 -21 -9 0 -43 -9 -76 -20
-33 -10 -91 -28 -130 -40 -38 -11 -99 -29 -135 -39 -36 -11 -92 -27 -125 -36
-33 -9 -83 -25 -110 -36 -28 -10 -58 -19 -66 -19 -9 0 -34 -7 -55 -16 -37 -16
-81 -29 -204 -59 -50 -13 -166 -45 -280 -79 -25 -7 -79 -23 -121 -34 -41 -12
-88 -26 -103 -32 -15 -5 -82 -10 -149 -10 -103 0 -134 4 -202 26 -129 41 -219
96 -315 193 -80 81 -107 122 -153 231 -56 134 -51 332 13 495 4 11 24 74 45
140 21 66 53 167 73 225 19 58 39 121 43 140 8 35 44 147 59 185 5 11 18 54
31 95 12 41 28 89 35 105 7 17 18 53 24 80 6 27 15 54 20 60 4 5 11 28 15 50
4 22 16 58 25 80 10 22 23 60 30 85 6 25 18 70 26 100 46 165 46 249 1 406
-12 44 -28 82 -92 219 -27 58 -57 130 -65 155 -5 14 -18 50 -30 80 -30 78 -80
227 -80 241 0 6 -6 25 -14 42 -13 29 -32 94 -73 247 -15 59 -34 160 -53 280
-6 41 -18 109 -26 150 -68 356 -71 923 -7 1320 8 52 19 124 24 160 11 85 33
188 70 335 17 66 34 136 39 155 4 19 13 49 19 65 6 17 38 113 72 215 33 102
69 205 81 230 11 25 26 59 33 75 8 17 34 74 59 128 25 54 46 100 46 102 0 11
107 216 146 282 10 17 35 57 54 89 19 32 42 71 51 86 9 15 22 35 29 43 7 8 20
28 29 44 38 67 100 158 161 236 36 46 75 96 87 112 12 15 30 37 40 48 10 11
43 49 73 85 95 112 111 130 271 290 85 86 196 189 245 230 49 41 94 80 99 86
10 11 75 60 201 152 166 122 224 162 232 162 5 0 17 9 27 20 10 11 23 20 29
20 6 0 43 21 81 45 39 25 88 54 110 65 22 11 58 31 80 44 22 14 78 44 125 66
97 48 107 53 135 67 37 19 110 51 165 73 30 12 69 28 85 35 17 6 46 19 65 27
19 8 76 27 125 42 50 16 112 37 139 47 27 11 55 19 64 19 8 0 40 9 71 19 203
69 703 158 971 172 244 13 731 2 897 -21z"/>
<path d="M4880 9440 c-144 -10 -352 -30 -370 -35 -8 -3 -60 -11 -115 -20 -169
-26 -258 -43 -304 -59 -24 -9 -51 -16 -60 -16 -17 0 -121 -30 -206 -60 -27
-10 -86 -28 -130 -40 -44 -12 -84 -26 -90 -30 -5 -4 -34 -15 -62 -24 -29 -10
-53 -22 -53 -27 0 -5 -9 -9 -20 -9 -11 0 -41 -10 -67 -21 -45 -20 -56 -25
-100 -48 -10 -5 -74 -36 -143 -70 -141 -69 -180 -91 -357 -200 -48 -30 -109
-70 -135 -90 -26 -20 -71 -52 -99 -71 -28 -19 -58 -42 -68 -50 -9 -9 -34 -28
-56 -43 -22 -14 -58 -43 -80 -63 -22 -19 -65 -56 -95 -82 -120 -101 -420 -412
-501 -517 -13 -16 -26 -32 -29 -35 -32 -29 -260 -352 -260 -369 0 -5 -4 -11
-9 -13 -11 -4 -45 -60 -67 -110 -9 -21 -20 -38 -25 -38 -5 0 -9 -9 -9 -20 0
-11 -4 -20 -9 -20 -5 0 -54 -91 -109 -202 -124 -251 -163 -342 -213 -503 -12
-38 -25 -77 -29 -85 -4 -9 -11 -31 -14 -50 -4 -19 -16 -57 -26 -85 -17 -47
-35 -114 -76 -275 -9 -36 -20 -99 -25 -140 -5 -41 -14 -88 -19 -105 -5 -16
-14 -73 -20 -125 -6 -52 -15 -126 -20 -165 -5 -38 -10 -229 -10 -424 -1 -367
2 -413 51 -706 30 -181 95 -453 129 -539 5 -11 27 -79 50 -149 38 -119 50
-152 85 -232 46 -103 75 -175 75 -184 0 -6 5 -11 10 -11 6 0 10 -6 10 -12 0
-7 6 -25 14 -39 7 -14 26 -66 42 -115 28 -86 28 -95 29 -304 l0 -215 -58 -180
c-32 -99 -68 -209 -79 -245 -21 -67 -42 -129 -72 -215 -10 -27 -22 -63 -26
-80 -25 -91 -72 -246 -85 -285 -9 -25 -28 -81 -42 -125 -14 -44 -33 -102 -43
-130 -65 -184 -90 -275 -90 -328 0 -72 29 -134 78 -167 33 -22 50 -25 144 -28
91 -3 113 -1 153 17 26 12 57 21 68 21 11 0 45 9 76 19 31 11 90 29 131 41 41
11 104 29 140 40 36 10 92 26 125 35 33 9 80 24 105 33 25 8 61 19 80 23 19 4
55 14 80 22 25 8 79 24 120 36 133 38 203 59 320 95 243 74 271 79 452 78 91
0 181 -4 200 -10 18 -5 68 -18 111 -27 42 -10 80 -21 83 -26 3 -5 12 -9 20 -9
15 0 64 -20 149 -60 73 -34 134 -60 143 -60 4 0 27 -9 50 -20 22 -11 46 -20
52 -20 6 0 59 -15 118 -34 283 -89 553 -156 632 -156 19 0 73 -7 120 -15 155
-26 569 -39 836 -26 131 6 273 18 314 26 41 8 93 14 115 14 37 1 95 12 305 62
160 38 440 122 493 150 22 10 45 19 53 19 8 0 31 9 51 20 21 11 43 20 50 20 6
0 51 18 100 41 48 22 102 46 118 54 44 19 155 75 195 98 19 11 46 27 60 34 14
8 39 23 55 33 17 11 44 26 60 35 17 8 50 28 75 45 25 16 52 33 60 37 8 3 17 9
20 13 3 3 39 28 80 55 76 50 298 221 336 259 11 12 47 44 79 71 104 89 216
198 303 295 46 52 99 111 116 130 42 46 163 202 207 265 19 28 36 52 39 55 3
3 10 12 15 21 6 10 25 38 43 63 17 26 32 51 32 56 0 4 4 10 8 12 9 4 102 143
102 152 0 4 26 53 58 109 57 99 73 131 126 250 14 31 37 81 50 110 32 72 86
214 86 227 0 5 4 18 9 28 5 9 19 49 30 87 95 326 100 421 22 493 -46 42 -60
48 -146 56 -79 8 -138 30 -173 65 -41 41 -102 177 -152 341 -13 41 -29 95 -37
120 -8 25 -20 71 -27 103 l-13 58 32 13 c17 8 43 17 56 21 41 12 119 48 119
55 0 4 12 12 26 19 48 22 194 142 226 187 17 24 34 44 38 44 4 0 17 24 31 53
13 28 26 54 30 57 3 3 14 28 23 55 10 28 21 57 26 66 12 23 38 173 45 259 3
41 1 109 -4 150 -25 186 -32 228 -45 270 -7 25 -19 65 -27 90 -7 25 -16 49
-21 54 -4 6 -8 19 -8 30 0 30 -94 295 -147 416 -66 149 -106 231 -163 335 -18
33 -48 88 -66 122 -19 34 -44 77 -56 96 -13 19 -39 60 -58 92 -19 32 -42 65
-50 74 -18 20 -100 140 -100 146 0 6 -159 206 -175 220 -6 6 -31 35 -55 65
-57 71 -325 339 -415 415 -38 32 -76 65 -84 73 -52 51 -427 317 -521 369 -52
29 -83 46 -167 95 -120 68 -360 177 -548 248 -33 13 -69 26 -80 30 -37 14
-189 59 -330 98 -184 51 -425 94 -630 113 -338 30 -499 34 -725 19z m575 -230
c132 -11 260 -25 285 -30 25 -5 74 -14 110 -19 178 -27 536 -122 648 -172 23
-10 48 -19 55 -19 6 -1 30 -9 52 -20 22 -11 45 -19 50 -20 6 0 30 -10 55 -21
25 -12 59 -28 75 -35 106 -45 304 -147 395 -203 19 -11 49 -28 67 -36 17 -8
34 -19 38 -24 3 -5 29 -24 58 -41 45 -27 72 -45 171 -112 14 -10 177 -137 237
-186 101 -81 332 -308 434 -427 107 -124 119 -137 135 -155 15 -17 26 -32 61
-87 12 -18 25 -33 30 -33 5 0 9 -5 9 -12 0 -6 8 -21 19 -32 43 -48 227 -334
254 -396 4 -8 18 -33 32 -55 40 -65 155 -302 155 -318 0 -9 4 -18 9 -21 5 -3
12 -18 15 -32 4 -14 15 -45 25 -68 22 -51 42 -104 110 -296 7 -19 17 -55 23
-80 6 -25 14 -50 19 -55 4 -6 13 -40 19 -75 5 -36 15 -83 20 -105 5 -22 12
-80 16 -130 5 -86 -2 -142 -34 -268 -13 -49 -71 -163 -94 -184 -10 -9 -18 -20
-18 -24 0 -14 -111 -116 -150 -138 -78 -44 -154 -81 -166 -81 -7 0 -15 15 -18
33 -2 17 -14 88 -25 157 -12 69 -21 135 -21 146 0 12 -9 68 -20 125 -10 57
-29 158 -40 224 -36 199 -57 250 -122 291 -28 18 -52 24 -95 24 -109 0 -171
-61 -267 -265 -16 -33 -33 -68 -38 -78 -13 -27 -87 -234 -98 -276 -5 -20 -24
-81 -43 -136 -19 -55 -39 -120 -46 -145 -7 -25 -19 -70 -28 -100 -8 -30 -21
-80 -28 -110 -25 -109 -47 -196 -61 -245 -7 -27 -25 -99 -38 -160 -75 -338
-83 -430 -44 -472 18 -19 32 -23 78 -23 42 0 61 5 72 18 15 18 52 154 63 232
4 25 10 59 15 75 5 17 14 62 19 100 11 80 39 200 54 232 8 18 12 20 21 9 14
-17 210 -172 234 -185 23 -12 132 -101 233 -190 126 -110 230 -203 253 -227
36 -36 124 -93 168 -110 65 -24 140 -44 166 -44 13 0 33 -5 44 -11 17 -9 19
-17 14 -50 -11 -69 -76 -265 -136 -414 -40 -97 -48 -116 -75 -180 -19 -46
-115 -235 -141 -280 -13 -22 -28 -49 -34 -60 -5 -11 -21 -38 -35 -60 -13 -22
-32 -53 -41 -69 -9 -16 -20 -34 -25 -40 -5 -6 -38 -55 -74 -109 -70 -106 -172
-243 -228 -308 -117 -136 -170 -192 -287 -309 -147 -147 -226 -220 -240 -220
-5 0 -13 -6 -17 -14 -4 -8 -39 -38 -78 -67 -38 -29 -75 -58 -81 -64 -6 -5 -20
-16 -30 -23 -11 -7 -41 -28 -69 -48 -61 -44 -244 -164 -250 -164 -2 0 -21 -12
-42 -26 -21 -14 -103 -57 -183 -95 -80 -38 -153 -74 -162 -79 -35 -20 -54 -29
-136 -64 -46 -20 -88 -36 -93 -36 -5 0 -28 -9 -52 -19 -99 -45 -439 -149 -542
-166 -22 -4 -78 -15 -125 -25 -258 -56 -378 -70 -690 -77 -245 -5 -522 12
-666 41 -38 8 -125 24 -194 36 -115 20 -179 36 -316 75 -28 8 -57 15 -66 15
-8 0 -33 9 -56 20 -22 11 -48 20 -58 20 -9 0 -30 7 -47 15 -31 14 -83 33 -162
60 -39 13 -86 31 -197 76 -102 41 -184 68 -273 91 -79 20 -114 23 -290 23
-156 0 -218 -4 -280 -18 -44 -10 -100 -22 -125 -28 -39 -8 -92 -23 -290 -83
-25 -7 -79 -24 -120 -36 -41 -12 -100 -30 -130 -40 -30 -10 -90 -27 -132 -39
-184 -50 -236 -64 -278 -77 -25 -7 -79 -23 -120 -34 -41 -12 -103 -30 -136
-41 -34 -10 -68 -19 -75 -19 -8 0 -27 -7 -43 -15 -16 -8 -47 -18 -69 -22 l-40
-6 7 39 c7 36 26 100 66 219 42 122 90 275 90 285 0 5 8 29 19 53 10 23 28 78
41 122 12 44 30 103 39 130 10 28 35 104 56 170 21 66 46 144 57 173 10 29 18
60 18 70 0 9 9 39 19 67 62 162 88 394 66 588 -8 62 -20 132 -28 157 -8 25
-18 62 -22 84 -6 35 -14 58 -50 141 -8 17 -25 59 -40 95 -15 36 -32 79 -39 95
-48 110 -96 235 -96 246 0 5 -9 28 -19 52 -19 43 -91 291 -91 316 0 7 -8 43
-19 79 -32 113 -60 274 -86 487 -23 187 -20 616 5 829 31 258 95 577 158 781
19 63 24 75 71 192 12 28 21 57 21 62 0 6 8 30 19 54 10 23 26 62 35 87 25 64
47 112 101 220 69 137 89 175 98 178 4 2 7 11 7 20 0 10 9 28 20 42 11 14 20
28 20 32 0 6 21 40 61 98 23 35 115 175 125 192 6 10 18 26 27 36 10 10 17 24
17 30 0 7 4 12 9 12 4 0 27 27 51 61 41 59 65 88 113 139 13 14 44 49 68 79
79 98 435 441 457 441 4 0 15 8 24 18 24 26 69 62 111 90 20 13 37 29 37 33 0
5 4 9 9 9 8 0 118 70 146 92 18 15 86 58 91 58 3 0 13 8 24 18 10 9 40 28 66
42 27 14 84 45 129 70 70 40 244 127 300 150 127 53 175 74 202 86 17 8 38 14
47 14 8 0 35 9 58 19 92 40 342 111 533 150 210 42 286 54 475 71 261 23 399
23 685 0z m2880 -3287 c3 -27 13 -82 22 -123 9 -41 22 -124 29 -185 18 -152
33 -247 51 -334 9 -40 16 -90 17 -109 l1 -36 -80 -18 c-44 -9 -105 -17 -135
-18 -30 -1 -95 -7 -144 -14 -106 -15 -109 -12 -79 78 11 34 31 97 43 141 12
44 31 102 41 129 11 27 19 55 19 62 0 8 4 22 10 32 5 9 24 60 40 112 60 185
125 327 152 329 4 1 10 -20 13 -46z m173 -1008 c7 -14 15 -45 18 -68 3 -23 13
-60 21 -82 8 -22 21 -66 28 -98 11 -53 10 -56 -5 -42 -9 8 -20 15 -25 15 -4 0
-13 6 -19 14 -6 8 -60 53 -121 100 -176 136 -178 138 -163 147 7 5 40 9 73 10
33 0 80 6 105 13 66 20 76 18 88 -9z"/>
<path d="M1945 6207 c-85 -33 -207 -141 -268 -237 -65 -102 -65 -102 -90 -155
-102 -216 -136 -368 -144 -637 -7 -252 5 -357 70 -586 9 -29 35 -88 59 -130
43 -76 143 -192 166 -192 7 0 12 -4 12 -9 0 -5 16 -15 35 -22 19 -7 35 -16 35
-19 0 -20 95 -35 220 -35 l135 1 80 39 c60 29 96 55 145 106 91 95 120 133
136 182 4 9 10 17 15 17 5 0 9 9 9 20 0 11 5 20 10 20 6 0 10 6 10 13 0 6 9
30 19 52 24 49 44 103 65 175 19 63 66 325 66 368 0 16 6 34 13 39 15 13 148
56 153 50 8 -8 23 -154 24 -225 0 -53 -5 -84 -20 -114 -11 -23 -20 -46 -20
-51 0 -5 -6 -23 -14 -40 -36 -78 -65 -161 -118 -332 -12 -38 -30 -94 -40 -123
-10 -29 -18 -63 -18 -76 0 -13 -6 -46 -14 -72 -29 -101 -48 -196 -56 -281 -5
-49 -14 -126 -21 -173 -13 -96 -7 -314 11 -370 21 -67 54 -125 82 -148 57 -48
169 -61 233 -28 31 16 75 58 75 73 0 6 5 13 11 15 5 2 14 19 19 38 5 19 16 60
24 90 22 83 54 281 67 415 6 66 13 335 15 598 2 263 6 488 10 500 29 94 161
255 245 297 74 38 140 7 185 -88 26 -54 28 -64 28 -202 0 -108 -5 -162 -18
-210 -39 -138 -104 -240 -181 -281 -18 -10 -63 -23 -99 -30 -104 -18 -142 -72
-117 -166 9 -34 18 -44 51 -57 167 -67 524 -9 735 119 67 40 66 40 89 9 20
-28 65 -74 101 -103 9 -7 48 -24 87 -37 126 -43 255 -27 387 48 62 36 181 144
212 194 11 19 25 34 30 34 5 0 9 -51 9 -112 1 -130 6 -142 72 -159 39 -11 51
-10 81 4 38 18 43 31 67 182 27 165 102 448 141 528 11 22 19 43 19 49 0 11
89 191 99 198 3 3 11 14 17 25 14 26 74 67 92 63 29 -6 54 -54 59 -114 3 -35
-4 -133 -17 -239 -16 -123 -23 -237 -24 -360 -1 -170 0 -183 23 -228 42 -87
104 -128 201 -135 124 -9 234 79 335 270 33 64 34 64 68 -35 42 -118 123 -216
195 -236 161 -45 260 35 332 269 13 41 31 100 41 130 9 30 27 98 38 150 11 52
31 140 43 195 l22 100 18 -90 c9 -49 17 -108 18 -130 0 -22 5 -60 11 -85 6
-25 16 -76 24 -115 23 -119 41 -177 79 -258 68 -142 144 -190 280 -173 47 6
62 14 100 49 77 74 192 358 241 602 9 44 25 119 36 167 10 48 19 97 19 110 0
13 9 79 20 148 48 306 67 793 34 862 -24 52 -90 73 -147 47 -44 -20 -48 -37
-53 -287 -2 -130 -9 -273 -14 -317 -5 -44 -14 -125 -20 -180 -13 -124 -36
-272 -60 -390 -11 -49 -24 -112 -29 -140 -24 -116 -42 -189 -56 -216 -8 -15
-15 -34 -15 -40 0 -24 -52 -144 -77 -177 -24 -31 -26 -32 -43 -17 -19 17 -52
108 -70 189 -5 22 -16 68 -24 101 -31 126 -46 201 -46 228 0 16 -9 88 -19 160
-19 127 -46 339 -61 478 -14 135 -97 202 -190 154 -37 -19 -70 -82 -70 -132 0
-21 -9 -83 -19 -138 -11 -55 -29 -156 -41 -225 -11 -69 -27 -156 -35 -195 -8
-38 -17 -90 -21 -115 -3 -25 -15 -76 -26 -115 -11 -38 -26 -95 -35 -125 -38
-137 -79 -236 -108 -260 -27 -22 -45 10 -98 175 -20 61 -46 150 -58 200 -21
85 -21 91 -6 135 9 25 19 65 23 90 3 25 14 79 24 120 10 41 21 98 24 125 4 28
11 79 16 115 54 366 48 624 -17 745 -57 105 -228 135 -312 54 -88 -83 -124
-268 -102 -519 26 -307 46 -461 78 -610 27 -123 28 -199 3 -272 -25 -71 -44
-116 -71 -170 -11 -20 -19 -44 -19 -52 0 -9 -4 -16 -9 -16 -5 0 -16 -15 -24
-32 -18 -39 -74 -98 -92 -98 -25 0 -46 40 -55 100 -6 43 -4 103 6 194 43 389
43 560 1 644 -24 47 -68 102 -82 102 -4 0 -18 9 -32 20 -21 16 -41 20 -100 20
-62 0 -82 -4 -121 -27 -50 -28 -101 -76 -143 -133 -26 -36 -119 -218 -119
-235 0 -6 -7 -19 -15 -29 -13 -17 -14 0 -8 141 l6 160 -33 31 c-36 35 -66 40
-108 18 -56 -29 -59 -39 -67 -211 -9 -210 -39 -342 -102 -454 -14 -25 -31 -55
-37 -66 -27 -49 -89 -135 -122 -169 -50 -52 -103 -83 -173 -102 -53 -15 -66
-16 -103 -4 -44 14 -118 80 -118 104 0 8 17 26 38 42 20 15 96 86 168 158 100
101 140 149 173 209 81 146 103 298 60 409 -23 61 -39 82 -94 123 -36 27 -49
30 -128 34 -108 4 -180 -19 -250 -81 -44 -37 -137 -164 -137 -185 0 -5 -9 -28
-20 -51 -11 -22 -20 -47 -20 -54 0 -7 -10 -42 -22 -78 -19 -57 -22 -90 -23
-258 l-2 -193 -34 -22 c-19 -12 -43 -28 -54 -34 -31 -20 -138 -70 -162 -77
-13 -3 -33 -9 -45 -12 l-21 -6 23 38 c119 198 169 412 141 609 -28 199 -104
319 -239 381 -69 31 -186 33 -247 4 -22 -11 -44 -19 -49 -20 -9 0 -96 -70
-140 -113 -34 -33 -35 -32 -60 64 -31 116 -103 155 -203 110 -26 -12 -67 -31
-91 -42 -24 -11 -47 -17 -51 -14 -5 2 -11 46 -14 97 -3 51 -15 133 -27 181
-21 87 -77 225 -102 251 -7 7 -20 24 -28 36 -20 30 -119 105 -150 115 -14 4
-31 12 -38 18 -8 6 -53 13 -100 15 -71 3 -97 0 -139 -17 l-52 -20 -6 29 c-13
59 -73 83 -140 57z m4197 -268 c11 -69 10 -282 -2 -414 -7 -66 -13 -121 -15
-123 -8 -8 -35 280 -35 368 0 89 21 221 34 217 6 -2 14 -24 18 -48z m-3807 -5
c89 -37 150 -174 176 -395 15 -131 12 -144 -39 -135 -156 25 -265 95 -328 211
-24 44 -28 62 -28 140 0 78 3 96 23 128 44 71 108 88 196 51z m-420 -26 c-4
-13 -10 -71 -12 -131 -5 -123 8 -181 64 -283 91 -167 260 -272 462 -288 40 -4
77 -8 80 -11 11 -6 -14 -180 -39 -270 -41 -154 -59 -200 -122 -314 -39 -69
-70 -107 -145 -171 -34 -29 -112 -53 -173 -54 -56 -1 -74 4 -129 34 -53 29
-72 46 -107 100 -52 80 -67 118 -99 234 -52 195 -55 533 -5 706 10 36 22 82
26 103 3 20 10 40 15 43 5 3 9 15 9 27 0 12 9 36 20 52 11 17 20 38 20 48 0 9
3 17 8 17 4 0 14 15 21 32 23 51 91 147 105 148 4 0 5 -10 1 -22z m2540 -642
c28 -23 30 -28 28 -89 -1 -47 -9 -79 -26 -114 -38 -74 -143 -208 -211 -268
l-61 -55 -8 28 c-19 65 35 296 92 392 39 65 109 130 140 130 9 0 29 -11 46
-24z m-1534 -1326 c-5 -102 -17 -225 -26 -275 -19 -107 -56 -229 -69 -230 -40
-1 -40 375 -1 575 26 130 57 262 79 337 l21 72 3 -147 c1 -81 -2 -230 -7 -332z"/>
</g>
</svg>
